<!DOCTYPE svg PUBLIC "-//W3C//DTD SVG 1.1//EN" "http://www.w3.org/Graphics/SVG/1.1/DTD/svg11.dtd">
<!-- Uploaded to: SVG Repo, www.svgrepo.com, Transformed by: SVG Repo Mixer Tools -->
<svg fill="#CF8E28" height="256px" width="256px" version="1.1" id="Capa_1" xmlns="http://www.w3.org/2000/svg" xmlns:xlink="http://www.w3.org/1999/xlink" viewBox="0 0 58.00 58.00" xml:space="preserve" stroke="#CF8E28" stroke-width="0.174">
<g id="SVGRepo_bgCarrier" stroke-width="0"/>
<g id="SVGRepo_tracerCarrier" stroke-linecap="round" stroke-linejoin="round"/>
<g id="SVGRepo_iconCarrier"> <g> <path d="M57.832,26.926l-8-12c-0.186-0.278-0.498-0.445-0.832-0.445H9c-0.335,0-0.646,0.167-0.832,0.445l-8,12 c-0.205,0.307-0.224,0.701-0.05,1.026C0.292,28.278,0.631,28.481,1,28.481h6v15.038h2V28.481h5v6h2v-6h27v6h2v-6h5v15.038h2V28.481 h5c0.369,0,0.708-0.203,0.882-0.528C58.056,27.627,58.037,27.233,57.832,26.926z M2.869,26.481l6.666-10h38.93l6.667,10H2.869z"/> </g> </g>
</svg>