<?xml version="1.0" standalone="no"?>
<!DOCTYPE svg PUBLIC "-//W3C//DTD SVG 20010904//EN"
 "http://www.w3.org/TR/2001/REC-SVG-20010904/DTD/svg10.dtd">
<svg version="1.0" xmlns="http://www.w3.org/2000/svg"
 width="100.000000pt" height="100.000000pt" viewBox="0 0 100.000000 100.000000"
 preserveAspectRatio="xMidYMid meet">

<g transform="translate(0.000000,100.000000) scale(0.100000,-0.100000)"
fill="#000000" stroke="none">
<path d="M140 853 c0 -4 25 -33 56 -64 l56 -56 -16 -31 c-22 -43 -23 -359 -2
-401 25 -48 50 -52 284 -50 l214 1 59 -58 c32 -32 62 -55 66 -51 4 4 -19 34
-51 66 l-58 58 16 31 c20 39 23 355 4 397 -23 51 -49 56 -285 54 l-215 -1 -57
56 c-54 53 -71 65 -71 49z m597 -145 c22 -21 23 -26 23 -208 0 -131 -4 -190
-12 -198 -17 -17 -31 -15 -25 2 4 9 1 13 -6 10 -7 -2 -43 27 -81 65 -69 69
-69 71 -51 91 10 11 23 20 29 20 23 0 115 -104 119 -135 2 -16 4 4 4 45 0 53
-2 64 -6 37 l-6 -38 -50 50 c-27 28 -54 51 -59 51 -5 0 -20 -10 -33 -22 l-24
-22 -119 119 -120 120 167 5 168 6 -177 2 c-105 1 -179 6 -183 12 -4 7 67 10
206 10 205 0 214 -1 236 -22z m-460 -12 c-4 -9 -1 -13 6 -10 17 6 261 -241
252 -256 -5 -7 -33 13 -82 61 l-74 72 -54 -53 -54 -54 -4 110 c-1 60 -3 30 -3
-66 0 -96 1 -148 3 -114 4 58 6 62 58 114 l55 54 127 -127 128 -127 -163 0
c-94 0 -173 4 -185 11 -21 10 -21 10 -3 -5 16 -13 54 -16 217 -16 121 0 200
-4 204 -10 4 -7 -67 -10 -206 -10 -281 0 -259 -19 -259 230 0 131 4 190 12
198 17 17 31 15 25 -2z m343 -331 c50 -50 60 -65 44 -65 -22 0 -139 112 -128
123 13 12 18 8 84 -58z"/>
<path d="M595 620 c-7 -23 2 -60 16 -60 5 0 4 9 -3 20 -10 16 -10 24 0 40 7
11 8 20 3 20 -5 0 -13 -9 -16 -20z"/>
<path d="M654 624 c9 -8 16 -19 16 -24 0 -5 -7 -16 -16 -24 -8 -9 -11 -16 -5
-16 19 0 33 38 21 60 -6 11 -15 20 -21 20 -6 0 -3 -7 5 -16z"/>
<path d="M732 510 c0 -14 2 -19 5 -12 2 6 2 18 0 25 -3 6 -5 1 -5 -13z"/>
</g>
</svg>
